<mxfile host="app.diagrams.net" modified="2021-04-08T03:26:00.471Z" agent="5.0 (Windows NT 10.0; Win64; x64) AppleWebKit/537.36 (KHTML, like Gecko) Chrome/89.0.4389.114 Safari/537.36" etag="52lp-T02HreeSPwVgAtG" version="14.5.8" type="github">
  <diagram id="loC_Joqb5bHbbbsJtBar" name="第 1 页">
    <mxGraphModel dx="1038" dy="548" grid="1" gridSize="10" guides="1" tooltips="1" connect="1" arrows="1" fold="1" page="1" pageScale="1" pageWidth="827" pageHeight="1169" math="0" shadow="0">
      <root>
        <mxCell id="0" />
        <mxCell id="1" parent="0" />
        <mxCell id="rwnZMm_pSQEc-7loCxw9-3" style="edgeStyle=orthogonalEdgeStyle;rounded=0;orthogonalLoop=1;jettySize=auto;html=1;" edge="1" parent="1" source="rwnZMm_pSQEc-7loCxw9-1" target="rwnZMm_pSQEc-7loCxw9-2">
          <mxGeometry relative="1" as="geometry" />
        </mxCell>
        <mxCell id="rwnZMm_pSQEc-7loCxw9-1" value="" style="rounded=1;whiteSpace=wrap;html=1;" vertex="1" parent="1">
          <mxGeometry x="290" y="60" width="120" height="60" as="geometry" />
        </mxCell>
        <mxCell id="rwnZMm_pSQEc-7loCxw9-5" style="edgeStyle=orthogonalEdgeStyle;rounded=0;orthogonalLoop=1;jettySize=auto;html=1;" edge="1" parent="1" source="rwnZMm_pSQEc-7loCxw9-2" target="rwnZMm_pSQEc-7loCxw9-4">
          <mxGeometry relative="1" as="geometry" />
        </mxCell>
        <mxCell id="rwnZMm_pSQEc-7loCxw9-6" style="edgeStyle=orthogonalEdgeStyle;rounded=0;orthogonalLoop=1;jettySize=auto;html=1;" edge="1" parent="1" source="rwnZMm_pSQEc-7loCxw9-2">
          <mxGeometry relative="1" as="geometry">
            <mxPoint x="350" y="350" as="targetPoint" />
          </mxGeometry>
        </mxCell>
        <mxCell id="rwnZMm_pSQEc-7loCxw9-2" value="" style="rounded=1;whiteSpace=wrap;html=1;" vertex="1" parent="1">
          <mxGeometry x="300" y="200" width="100" height="60" as="geometry" />
        </mxCell>
        <mxCell id="rwnZMm_pSQEc-7loCxw9-4" value="" style="ellipse;whiteSpace=wrap;html=1;fillColor=#f5f5f5;strokeColor=#666666;fontColor=#333333;" vertex="1" parent="1">
          <mxGeometry x="560" y="190" width="120" height="80" as="geometry" />
        </mxCell>
        <mxCell id="rwnZMm_pSQEc-7loCxw9-7" value="" style="rounded=1;whiteSpace=wrap;html=1;" vertex="1" parent="1">
          <mxGeometry x="290" y="350" width="120" height="60" as="geometry" />
        </mxCell>
      </root>
    </mxGraphModel>
  </diagram>
</mxfile>
